# Blender 4.0.1
# www.blender.org
mtllib ZingerBox_v4.mtl
o Cube
v -0.150000 0.187500 -0.150000
v -0.150000 -0.150000 -0.150000
v -0.150000 0.187500 0.750000
v -0.150000 -0.150000 0.750000
v -0.150000 -0.093750 0.750000
v -0.150000 -0.037500 0.750000
v -0.150000 0.018750 0.750000
v -0.150000 0.075000 0.750000
v -0.150000 0.131250 0.750000
v -0.150000 0.131250 -0.150000
v -0.150000 0.075000 -0.150000
v -0.150000 0.018750 -0.150000
v -0.150000 -0.037500 -0.150000
v -0.150000 -0.093750 -0.150000
v -0.150000 0.187500 0.450000
v -0.150000 0.187500 0.150000
v 0.412500 -0.150000 -0.150000
v 0.412500 -0.150000 0.750000
v 0.412500 -0.093750 -0.150000
v 0.412500 -0.037500 -0.150000
v 0.412500 0.018750 -0.150000
v 0.412500 0.075000 -0.150000
v 0.412500 0.131250 -0.150000
v 0.412500 -0.093750 0.750000
v 0.412500 -0.037500 0.750000
v 0.412500 0.018750 0.750000
v 0.412500 0.075000 0.750000
v 0.412500 0.131250 0.750000
v 0.412500 0.187500 0.750000
v 0.412500 0.187500 -0.150000
v 0.412500 0.187500 0.150000
v 0.412500 0.187500 0.450000
v -0.150000 -0.150000 0.150000
v -0.150000 -0.150000 0.450000
v 0.412500 -0.150000 0.150000
v 0.412500 -0.150000 0.450000
vn -0.0000 -0.0000 1.0000
vn -1.0000 -0.0000 -0.0000
vn -0.0000 1.0000 -0.0000
vn -0.0000 -0.0000 -1.0000
vn -0.0000 -1.0000 -0.0000
vn 1.0000 -0.0000 -0.0000
vt 0.320433 1.000000
vt 0.346456 0.553988
vt 0.346456 1.000000
vt 0.000000 0.475746
vt 0.000000 0.237873
vt 0.026023 0.000000
vt 0.156137 0.237873
vt 0.156137 0.475746
vt 0.130115 0.713619
vt 0.104092 0.713619
vt 0.130115 0.000000
vt 0.078069 0.713619
vt 0.104092 0.000000
vt 0.052046 0.713619
vt 0.078069 0.000000
vt 0.026023 0.713619
vt 0.052046 0.000000
vt 0.450547 1.000000
vt 0.476570 0.553988
vt 0.476570 1.000000
vt 0.424524 1.000000
vt 0.450547 0.553988
vt 0.398502 1.000000
vt 0.424524 0.553988
vt 0.372479 1.000000
vt 0.398502 0.553988
vt 0.372479 0.553988
vt 0.320433 0.366558
vt 0.658177 0.183279
vt 0.658177 0.366558
vt 0.320433 0.183279
vt 0.658177 0.000000
vt 0.320433 0.549838
vt 0.658177 0.549838
vt 0.506672 1.000000
vt 0.532695 0.553988
vt 0.532695 1.000000
vt 0.558718 0.553988
vt 0.558718 1.000000
vt 0.584741 0.553988
vt 0.584741 1.000000
vt 0.610764 0.553988
vt 0.610764 1.000000
vt 0.636787 0.553988
vt 0.636787 1.000000
vt 0.480649 1.000000
vt 0.506672 0.553988
vt 0.662256 0.366558
vt 1.000000 0.183279
vt 1.000000 0.366558
vt 0.662256 0.183279
vt 1.000000 0.000000
vt 0.662256 0.549838
vt 1.000000 0.549838
vt 0.316354 0.237873
vt 0.316354 0.475746
vt 0.160216 0.475746
vt 0.320433 0.553988
vt 0.000000 0.713619
vt 0.000000 0.000000
vt 0.156137 0.713619
vt 0.156137 0.000000
vt 0.320433 0.000000
vt 0.480649 0.553988
vt 0.662256 0.000000
vt 0.160216 0.237873
vt 0.160216 0.000000
vt 0.186239 0.000000
vt 0.212262 0.000000
vt 0.186239 0.713619
vt 0.160216 0.713619
vt 0.238285 0.000000
vt 0.212262 0.713619
vt 0.238285 0.713619
vt 0.264308 0.000000
vt 0.290331 0.000000
vt 0.316354 0.000000
vt 0.264308 0.713619
vt 0.316354 0.713619
vt 0.290331 0.713619
s 0
usemtl ZingerColor
f 29/1/1 9/2/1 28/3/1
f 15/4/2 16/5/2 10/6/2
f 33/7/2 34/8/2 5/9/2
f 6/10/2 14/11/2 5/9/2
f 7/12/2 13/13/2 6/10/2
f 8/14/2 12/15/2 7/12/2
f 9/16/2 11/17/2 8/14/2
f 24/18/1 4/19/1 18/20/1
f 25/21/1 5/22/1 24/18/1
f 26/23/1 6/24/1 25/21/1
f 27/25/1 7/26/1 26/23/1
f 28/3/1 8/27/1 27/25/1
f 16/28/3 32/29/3 31/30/3
f 15/31/3 29/32/3 32/29/3
f 1/33/3 31/30/3 30/34/3
f 10/35/4 22/36/4 11/37/4
f 11/37/4 21/38/4 12/39/4
f 12/39/4 20/40/4 13/41/4
f 13/41/4 19/42/4 14/43/4
f 14/43/4 17/44/4 2/45/4
f 1/46/4 23/47/4 10/35/4
f 35/48/5 34/49/5 33/50/5
f 36/51/5 4/52/5 34/49/5
f 17/53/5 33/50/5 2/54/5
f 36/55/6 35/56/6 31/57/6
f 29/1/1 3/58/1 9/2/1
f 10/6/2 9/16/2 15/4/2
f 9/16/2 3/59/2 15/4/2
f 16/5/2 1/60/2 10/6/2
f 34/8/2 4/61/2 5/9/2
f 5/9/2 14/11/2 33/7/2
f 14/11/2 2/62/2 33/7/2
f 6/10/2 13/13/2 14/11/2
f 7/12/2 12/15/2 13/13/2
f 8/14/2 11/17/2 12/15/2
f 9/16/2 10/6/2 11/17/2
f 24/18/1 5/22/1 4/19/1
f 25/21/1 6/24/1 5/22/1
f 26/23/1 7/26/1 6/24/1
f 27/25/1 8/27/1 7/26/1
f 28/3/1 9/2/1 8/27/1
f 16/28/3 15/31/3 32/29/3
f 15/31/3 3/63/3 29/32/3
f 1/33/3 16/28/3 31/30/3
f 10/35/4 23/47/4 22/36/4
f 11/37/4 22/36/4 21/38/4
f 12/39/4 21/38/4 20/40/4
f 13/41/4 20/40/4 19/42/4
f 14/43/4 19/42/4 17/44/4
f 1/46/4 30/64/4 23/47/4
f 35/48/5 36/51/5 34/49/5
f 36/51/5 18/65/5 4/52/5
f 17/53/5 35/48/5 33/50/5
f 32/66/6 29/67/6 28/68/6
f 32/66/6 28/68/6 27/69/6
f 23/70/6 30/71/6 31/57/6
f 31/57/6 32/66/6 36/55/6
f 32/66/6 27/69/6 26/72/6
f 32/66/6 26/72/6 36/55/6
f 22/73/6 23/70/6 31/57/6
f 21/74/6 22/73/6 31/57/6
f 26/72/6 25/75/6 36/55/6
f 24/76/6 18/77/6 36/55/6
f 25/75/6 24/76/6 36/55/6
f 20/78/6 21/74/6 35/56/6
f 21/74/6 31/57/6 35/56/6
f 35/56/6 17/79/6 19/80/6
f 19/80/6 20/78/6 35/56/6
